{
  "accessors": [
    {
      "bufferView": 2,
      "componentType": 5126,
      "count": 61,
      "max": [
        -0.7917109727859497,
        0.0001340000017080456,
        -0.8766319751739502
      ],
      "min": [
        -0.7919350266456604,
        -0.00013000000035390258,
        -0.8769040107727051
      ],
      "type": "VEC3"
    },
    {
      "bufferView": 2,
      "byteOffset": 732,
      "componentType": 5126,
      "count": 61,
      "max": [
        0.9637691974639893,
        0.8567096590995789,
        0.9557636380195618
      ],
      "min": [
        -0.8863533735275269,
        -0.9702539443969727,
        -0.9821593761444092
      ],
      "type": "VEC3"
    },
    {
      "bufferView": 1,
      "componentType": 5126,
      "count": 61,
      "max": [
        0.0,
        1.8218920230865479
      ],
      "min": [
        -0.8794069886207581,
        0.0
      ],
      "type": "VEC2"
    },
    {
      "bufferView": 0,
      "componentType": 5125,
      "count": 84,
      "type": "SCALAR"
    },
    {
      "bufferView": 2,
      "byteOffset": 1464,
      "componentType": 5126,
      "count": 234,
      "max": [
        0.6578559875488281,
        0.31843000650405884,
        0.835436999797821
      ],
      "min": [
        0.09338200092315674,
        -0.31843000650405884,
        0.4423530101776123
      ],
      "type": "VEC3"
    },
    {
      "bufferView": 2,
      "byteOffset": 4272,
      "componentType": 5126,
      "count": 234,
      "max": [
        0.41522181034088135,
        0.9974883794784546,
        0.9985958933830261
      ],
      "min": [
        -0.9996883273124695,
        -0.9974883794784546,
        -0.9958826899528503
      ],
      "type": "VEC3"
    },
    {
      "bufferView": 1,
      "byteOffset": 488,
      "componentType": 5126,
      "count": 234,
      "max": [
        1.8452789783477783,
        0.889611005783081
      ],
      "min": [
        0.25681400299072266,
        -0.3348489999771118
      ],
      "type": "VEC2"
    },
    {
      "bufferView": 0,
      "byteOffset": 336,
      "componentType": 5125,
      "count": 924,
      "type": "SCALAR"
    },
    {
      "bufferView": 2,
      "byteOffset": 7080,
      "componentType": 5126,
      "count": 2690,
      "max": [
        0.7919350266456604,
        0.40104401111602783,
        0.7464680075645447
      ],
      "min": [
        0.06098899990320206,
        -0.40104401111602783,
        -0.1835470050573349
      ],
      "type": "VEC3"
    },
    {
      "bufferView": 2,
      "byteOffset": 39360,
      "componentType": 5126,
      "count": 2690,
      "max": [
        0.9999985098838806,
        1.0,
        0.9999984502792358
      ],
      "min": [
        -0.9999985098838806,
        -1.0,
        -0.9999984502792358
      ],
      "type": "VEC3"
    },
    {
      "bufferView": 1,
      "byteOffset": 2360,
      "componentType": 5126,
      "count": 2690,
      "max": [
        1.995507001876831,
        0.9916999936103821
      ],
      "min": [
        1.0067930221557617,
        0.004912000149488449
      ],
      "type": "VEC2"
    },
    {
      "bufferView": 0,
      "byteOffset": 4032,
      "componentType": 5125,
      "count": 7953,
      "type": "SCALAR"
    },
    {
      "bufferView": 2,
      "byteOffset": 71640,
      "componentType": 5126,
      "count": 7566,
      "max": [
        0.6920179724693298,
        1.25,
        0.6843519806861877
      ],
      "min": [
        -0.04863699898123741,
        -1.25,
        -0.8853669762611389
      ],
      "type": "VEC3"
    },
    {
      "bufferView": 2,
      "byteOffset": 162432,
      "componentType": 5126,
      "count": 7566,
      "max": [
        0.9999921917915344,
        1.0,
        0.9998822212219238
      ],
      "min": [
        -0.9999921917915344,
        -1.0,
        -0.9994247555732727
      ],
      "type": "VEC3"
    },
    {
      "bufferView": 1,
      "byteOffset": 23880,
      "componentType": 5126,
      "count": 7566,
      "max": [
        1.8578389883041382,
        0.9917939901351929
      ],
      "min": [
        -0.9943259954452515,
        0.004780000075697899
      ],
      "type": "VEC2"
    },
    {
      "bufferView": 0,
      "byteOffset": 35844,
      "componentType": 5125,
      "count": 29862,
      "type": "SCALAR"
    },
    {
      "bufferView": 2,
      "byteOffset": 253224,
      "componentType": 5126,
      "count": 155,
      "max": [
        0.7789850234985352,
        0.5630139708518982,
        0.5076889991760254
      ],
      "min": [
        0.06729800254106522,
        -0.6138529777526855,
        0.31951799988746643
      ],
      "type": "VEC3"
    },
    {
      "bufferView": 2,
      "byteOffset": 255084,
      "componentType": 5126,
      "count": 155,
      "max": [
        0.9963834285736084,
        0.1666940450668335,
        0.9986354112625122
      ],
      "min": [
        -0.9983944892883301,
        -0.5656753778457642,
        -0.08497069031000137
      ],
      "type": "VEC3"
    },
    {
      "bufferView": 1,
      "byteOffset": 84408,
      "componentType": 5126,
      "count": 155,
      "max": [
        1.9801900386810303,
        1.9949979782104492
      ],
      "min": [
        1.0237230062484741,
        1.0139600038528442
      ],
      "type": "VEC2"
    },
    {
      "bufferView": 0,
      "byteOffset": 155292,
      "componentType": 5125,
      "count": 621,
      "type": "SCALAR"
    },
    {
      "bufferView": 2,
      "byteOffset": 256944,
      "componentType": 5126,
      "count": 4112,
      "max": [
        0.5184320211410522,
        0.1268240064382553,
        0.8853669762611389
      ],
      "min": [
        0.19363799691200256,
        -0.1268240064382553,
        0.4593380093574524
      ],
      "type": "VEC3"
    },
    {
      "bufferView": 2,
      "byteOffset": 306288,
      "componentType": 5126,
      "count": 4112,
      "max": [
        0.9998024106025696,
        0.999972403049469,
        0.9999382495880127
      ],
      "min": [
        -0.9999196529388428,
        -0.9999723434448242,
        -0.999960720539093
      ],
      "type": "VEC3"
    },
    {
      "bufferView": 1,
      "byteOffset": 85648,
      "componentType": 5126,
      "count": 4112,
      "max": [
        0.9905580282211304,
        -0.016054000705480576
      ],
      "min": [
        0.013132999651134014,
        -0.9898430109024048
      ],
      "type": "VEC2"
    },
    {
      "bufferView": 0,
      "byteOffset": 157776,
      "componentType": 5125,
      "count": 21276,
      "type": "SCALAR"
    },
    {
      "bufferView": 2,
      "byteOffset": 355632,
      "componentType": 5126,
      "count": 96,
      "max": [
        0.6793239712715149,
        1.1257009506225586,
        0.6195520162582397
      ],
      "min": [
        0.6033830046653748,
        -1.1257009506225586,
        0.1467610001564026
      ],
      "type": "VEC3"
    },
    {
      "bufferView": 2,
      "byteOffset": 356784,
      "componentType": 5126,
      "count": 96,
      "max": [
        0.9958816170692444,
        0.9833300709724426,
        0.9880425333976746
      ],
      "min": [
        -0.9998207092285156,
        -0.9833300709724426,
        -0.18108077347278595
      ],
      "type": "VEC3"
    },
    {
      "bufferView": 1,
      "byteOffset": 118544,
      "componentType": 5126,
      "count": 96,
      "max": [
        11.509077072143555,
        1.0
      ],
      "min": [
        2.8406341075897217,
        -9.999999974752427e-07
      ],
      "type": "VEC2"
    },
    {
      "bufferView": 0,
      "byteOffset": 242880,
      "componentType": 5125,
      "count": 180,
      "type": "SCALAR"
    },
    {
      "bufferView": 2,
      "byteOffset": 357936,
      "componentType": 5126,
      "count": 166,
      "max": [
        0.6814360022544861,
        0.26032400131225586,
        0.6027510166168213
      ],
      "min": [
        0.14726899564266205,
        -0.26032400131225586,
        0.12379100173711777
      ],
      "type": "VEC3"
    },
    {
      "bufferView": 2,
      "byteOffset": 359928,
      "componentType": 5126,
      "count": 166,
      "max": [
        0.9958816766738892,
        0.9995386004447937,
        0.9971461892127991
      ],
      "min": [
        -0.9995843172073364,
        -0.9995386004447937,
        -0.9926182627677917
      ],
      "type": "VEC3"
    },
    {
      "bufferView": 1,
      "byteOffset": 119312,
      "componentType": 5126,
      "count": 166,
      "max": [
        0.9879860281944275,
        0.9123600125312805
      ],
      "min": [
        0.01209999993443489,
        0.04772799834609032
      ],
      "type": "VEC2"
    },
    {
      "bufferView": 0,
      "byteOffset": 243600,
      "componentType": 5125,
      "count": 540,
      "type": "SCALAR"
    }
  ],
  "asset": {
    "extras": {
      "author": "JennyfanMeetTheRobinsonGame (https://sketchfab.com/jennyconteras75)",
      "license": "CC-BY-4.0 (http://creativecommons.org/licenses/by/4.0/)",
      "source": "https://sketchfab.com/3d-models/buzz-lightyear-0c0683897a87401389a78570484c7daf",
      "title": "Buzz Lightyear"
    },
    "generator": "Sketchfab-16.74.0",
    "version": "2.0"
  },
  "bufferViews": [
    {
      "buffer": 0,
      "byteLength": 245760,
      "name": "floatBufferViews",
      "target": 34963
    },
    {
      "buffer": 0,
      "byteLength": 120640,
      "byteOffset": 245760,
      "byteStride": 8,
      "name": "floatBufferViews",
      "target": 34962
    },
    {
      "buffer": 0,
      "byteLength": 361920,
      "byteOffset": 366400,
      "byteStride": 12,
      "name": "floatBufferViews",
      "target": 34962
    }
  ],
  "buffers": [
    {
      "byteLength": 728320,
      "uri": "scene.bin"
    }
  ],
  "extensionsRequired": [
    "KHR_materials_pbrSpecularGlossiness"
  ],
  "extensionsUsed": [
    "KHR_materials_pbrSpecularGlossiness"
  ],
  "images": [
    {
      "uri": "textures/14-model-0-mat-0_diffuse.jpeg"
    },
    {
      "uri": "textures/buzz_eyes_diffuse.png"
    },
    {
      "uri": "textures/buzz_tex_1_diffuse.png"
    },
    {
      "uri": "textures/buzz_tex_2_diffuse.png"
    },
    {
      "uri": "textures/buzz_tex_3_diffuse.png"
    },
    {
      "uri": "textures/buzz_tex_4_diffuse.png"
    },
    {
      "uri": "textures/buzz_tex_5_diffuse.png"
    },
    {
      "uri": "textures/buzz_tex_6_diffuse.png"
    }
  ],
  "materials": [
    {
      "doubleSided": true,
      "extensions": {
        "KHR_materials_pbrSpecularGlossiness": {
          "diffuseFactor": [
            1.0,
            1.0,
            1.0,
            1.0
          ],
          "diffuseTexture": {
            "index": 0
          },
          "glossinessFactor": 0.0,
          "specularFactor": [
            0.0,
            0.0,
            0.0
          ]
        }
      },
      "name": "14-model-0-mat-0"
    },
    {
      "doubleSided": true,
      "extensions": {
        "KHR_materials_pbrSpecularGlossiness": {
          "diffuseFactor": [
            1.0,
            1.0,
            1.0,
            1.0
          ],
          "diffuseTexture": {
            "index": 1
          },
          "glossinessFactor": 0.0,
          "specularFactor": [
            0.0,
            0.0,
            0.0
          ]
        }
      },
      "name": "buzz_eyes"
    },
    {
      "doubleSided": true,
      "extensions": {
        "KHR_materials_pbrSpecularGlossiness": {
          "diffuseFactor": [
            1.0,
            1.0,
            1.0,
            1.0
          ],
          "diffuseTexture": {
            "index": 2
          },
          "glossinessFactor": 0.0,
          "specularFactor": [
            0.0,
            0.0,
            0.0
          ]
        }
      },
      "name": "buzz_tex_1"
    },
    {
      "doubleSided": true,
      "extensions": {
        "KHR_materials_pbrSpecularGlossiness": {
          "diffuseFactor": [
            1.0,
            1.0,
            1.0,
            1.0
          ],
          "diffuseTexture": {
            "index": 3
          },
          "glossinessFactor": 0.0,
          "specularFactor": [
            0.0,
            0.0,
            0.0
          ]
        }
      },
      "name": "buzz_tex_2"
    },
    {
      "doubleSided": true,
      "extensions": {
        "KHR_materials_pbrSpecularGlossiness": {
          "diffuseFactor": [
            1.0,
            1.0,
            1.0,
            1.0
          ],
          "diffuseTexture": {
            "index": 4
          },
          "glossinessFactor": 0.0,
          "specularFactor": [
            0.0,
            0.0,
            0.0
          ]
        }
      },
      "name": "buzz_tex_3"
    },
    {
      "doubleSided": true,
      "extensions": {
        "KHR_materials_pbrSpecularGlossiness": {
          "diffuseFactor": [
            1.0,
            1.0,
            1.0,
            1.0
          ],
          "diffuseTexture": {
            "index": 5
          },
          "glossinessFactor": 0.0,
          "specularFactor": [
            0.0,
            0.0,
            0.0
          ]
        }
      },
      "name": "buzz_tex_4"
    },
    {
      "doubleSided": true,
      "extensions": {
        "KHR_materials_pbrSpecularGlossiness": {
          "diffuseFactor": [
            1.0,
            1.0,
            1.0,
            1.0
          ],
          "diffuseTexture": {
            "index": 6
          },
          "glossinessFactor": 0.0,
          "specularFactor": [
            0.0,
            0.0,
            0.0
          ]
        }
      },
      "name": "buzz_tex_5"
    },
    {
      "doubleSided": true,
      "extensions": {
        "KHR_materials_pbrSpecularGlossiness": {
          "diffuseFactor": [
            1.0,
            1.0,
            1.0,
            1.0
          ],
          "diffuseTexture": {
            "index": 7
          },
          "glossinessFactor": 0.0,
          "specularFactor": [
            0.0,
            0.0,
            0.0
          ]
        }
      },
      "name": "buzz_tex_6"
    }
  ],
  "meshes": [
    {
      "name": "Object_0",
      "primitives": [
        {
          "attributes": {
            "NORMAL": 1,
            "POSITION": 0,
            "TEXCOORD_0": 2
          },
          "indices": 3,
          "material": 0,
          "mode": 4
        }
      ]
    },
    {
      "name": "Object_1",
      "primitives": [
        {
          "attributes": {
            "NORMAL": 5,
            "POSITION": 4,
            "TEXCOORD_0": 6
          },
          "indices": 7,
          "material": 1,
          "mode": 4
        }
      ]
    },
    {
      "name": "Object_2",
      "primitives": [
        {
          "attributes": {
            "NORMAL": 9,
            "POSITION": 8,
            "TEXCOORD_0": 10
          },
          "indices": 11,
          "material": 2,
          "mode": 4
        }
      ]
    },
    {
      "name": "Object_3",
      "primitives": [
        {
          "attributes": {
            "NORMAL": 13,
            "POSITION": 12,
            "TEXCOORD_0": 14
          },
          "indices": 15,
          "material": 3,
          "mode": 4
        }
      ]
    },
    {
      "name": "Object_4",
      "primitives": [
        {
          "attributes": {
            "NORMAL": 17,
            "POSITION": 16,
            "TEXCOORD_0": 18
          },
          "indices": 19,
          "material": 4,
          "mode": 4
        }
      ]
    },
    {
      "name": "Object_5",
      "primitives": [
        {
          "attributes": {
            "NORMAL": 21,
            "POSITION": 20,
            "TEXCOORD_0": 22
          },
          "indices": 23,
          "material": 5,
          "mode": 4
        }
      ]
    },
    {
      "name": "Object_6",
      "primitives": [
        {
          "attributes": {
            "NORMAL": 25,
            "POSITION": 24,
            "TEXCOORD_0": 26
          },
          "indices": 27,
          "material": 6,
          "mode": 4
        }
      ]
    },
    {
      "name": "Object_7",
      "primitives": [
        {
          "attributes": {
            "NORMAL": 29,
            "POSITION": 28,
            "TEXCOORD_0": 30
          },
          "indices": 31,
          "material": 7,
          "mode": 4
        }
      ]
    }
  ],
  "nodes": [
    {
      "children": [
        1
      ],
      "matrix": [
        2.220446049250313e-16,
        2.220446049250313e-16,
        -1.0,
        0.0,
        -1.0,
        4.930380657631324e-32,
        -2.220446049250313e-16,
        0.0,
        0.0,
        1.0,
        2.220446049250313e-16,
        0.0,
        0.0,
        0.0,
        0.0,
        1.0
      ],
      "name": "Sketchfab_model"
    },
    {
      "children": [
        2,
        3,
        4,
        5,
        6,
        7,
        8,
        9
      ],
      "name": "G7CVEC4O394HM1IJOEOC66LNO.obj.cleaner.materialmerger.gles"
    },
    {
      "mesh": 0,
      "name": "Object_2"
    },
    {
      "mesh": 1,
      "name": "Object_3"
    },
    {
      "mesh": 2,
      "name": "Object_4"
    },
    {
      "mesh": 3,
      "name": "Object_5"
    },
    {
      "mesh": 4,
      "name": "Object_6"
    },
    {
      "mesh": 5,
      "name": "Object_7"
    },
    {
      "mesh": 6,
      "name": "Object_8"
    },
    {
      "mesh": 7,
      "name": "Object_9"
    }
  ],
  "samplers": [
    {
      "magFilter": 9729,
      "minFilter": 9987,
      "wrapS": 10497,
      "wrapT": 10497
    }
  ],
  "scene": 0,
  "scenes": [
    {
      "name": "Sketchfab_Scene",
      "nodes": [
        0
      ]
    }
  ],
  "textures": [
    {
      "sampler": 0,
      "source": 0
    },
    {
      "sampler": 0,
      "source": 1
    },
    {
      "sampler": 0,
      "source": 2
    },
    {
      "sampler": 0,
      "source": 3
    },
    {
      "sampler": 0,
      "source": 4
    },
    {
      "sampler": 0,
      "source": 5
    },
    {
      "sampler": 0,
      "source": 6
    },
    {
      "sampler": 0,
      "source": 7
    }
  ]
}
