{
  "accessors": [
    {
      "bufferView": 2,
      "componentType": 5126,
      "count": 65532,
      "max": [
        0.6658080220222473,
        0.9940760135650635,
        0.6112819910049438
      ],
      "min": [
        -0.664106011390686,
        -0.9881359934806824,
        -0.6133350133895874
      ],
      "type": "VEC3"
    },
    {
      "bufferView": 2,
      "byteOffset": 786384,
      "componentType": 5126,
      "count": 65532,
      "max": [
        0.9999903440475464,
        0.9999894499778748,
        0.9998996257781982
      ],
      "min": [
        -0.9999817609786987,
        -0.9999868869781494,
        -0.9999914169311523
      ],
      "type": "VEC3"
    },
    {
      "bufferView": 1,
      "componentType": 5126,
      "count": 65532,
      "max": [
        0.9921875,
        1.0
      ],
      "min": [
        -0.0,
        0.034515380859375
      ],
      "type": "VEC2"
    },
    {
      "bufferView": 0,
      "componentType": 5125,
      "count": 316758,
      "type": "SCALAR"
    },
    {
      "bufferView": 2,
      "byteOffset": 1572768,
      "componentType": 5126,
      "count": 65532,
      "max": [
        0.6657360196113586,
        0.9972140192985535,
        0.591808021068573
      ],
      "min": [
        -0.6578260064125061,
        -0.962772011756897,
        -0.6133350133895874
      ],
      "type": "VEC3"
    },
    {
      "bufferView": 2,
      "byteOffset": 2359152,
      "componentType": 5126,
      "count": 65532,
      "max": [
        0.9999994039535522,
        0.9999996423721313,
        0.9999983310699463
      ],
      "min": [
        -0.9999914169311523,
        -0.9999897480010986,
        -0.9999872446060181
      ],
      "type": "VEC3"
    },
    {
      "bufferView": 1,
      "byteOffset": 524256,
      "componentType": 5126,
      "count": 65532,
      "max": [
        0.99169921875,
        1.0
      ],
      "min": [
        0.0,
        0.01197052001953125
      ],
      "type": "VEC2"
    },
    {
      "bufferView": 0,
      "byteOffset": 1267032,
      "componentType": 5125,
      "count": 319551,
      "type": "SCALAR"
    },
    {
      "bufferView": 2,
      "byteOffset": 3145536,
      "componentType": 5126,
      "count": 65532,
      "max": [
        0.6466180086135864,
        0.9962189793586731,
        0.6114259958267212
      ],
      "min": [
        -0.6451650261878967,
        -0.9896420240402222,
        -0.5940350294113159
      ],
      "type": "VEC3"
    },
    {
      "bufferView": 2,
      "byteOffset": 3931920,
      "componentType": 5126,
      "count": 65532,
      "max": [
        0.9999808073043823,
        0.9999971389770508,
        0.9999983310699463
      ],
      "min": [
        -0.9999958276748657,
        -0.9999828338623047,
        -0.9998201131820679
      ],
      "type": "VEC3"
    },
    {
      "bufferView": 1,
      "byteOffset": 1048512,
      "componentType": 5126,
      "count": 65532,
      "max": [
        0.99169921875,
        1.0
      ],
      "min": [
        0.0,
        0.004047393798828125
      ],
      "type": "VEC2"
    },
    {
      "bufferView": 0,
      "byteOffset": 2545236,
      "componentType": 5125,
      "count": 306096,
      "type": "SCALAR"
    },
    {
      "bufferView": 2,
      "byteOffset": 4718304,
      "componentType": 5126,
      "count": 65532,
      "max": [
        0.66212397813797,
        0.9925919771194458,
        0.5962799787521362
      ],
      "min": [
        -0.6592320203781128,
        -0.9901090264320374,
        -0.6121870279312134
      ],
      "type": "VEC3"
    },
    {
      "bufferView": 2,
      "byteOffset": 5504688,
      "componentType": 5126,
      "count": 65532,
      "max": [
        0.9999921321868896,
        0.9999258518218994,
        0.9999983310699463
      ],
      "min": [
        -0.9999863505363464,
        -0.9999123811721802,
        -0.9999816417694092
      ],
      "type": "VEC3"
    },
    {
      "bufferView": 1,
      "byteOffset": 1572768,
      "componentType": 5126,
      "count": 65532,
      "max": [
        0.9931640625,
        1.0
      ],
      "min": [
        0.0,
        0.0036296844482421875
      ],
      "type": "VEC2"
    },
    {
      "bufferView": 0,
      "byteOffset": 3769620,
      "componentType": 5125,
      "count": 275235,
      "type": "SCALAR"
    },
    {
      "bufferView": 2,
      "byteOffset": 6291072,
      "componentType": 5126,
      "count": 65532,
      "max": [
        0.6658080220222473,
        0.9928579926490784,
        0.6086819767951965
      ],
      "min": [
        -0.6556450128555298,
        -0.989982008934021,
        -0.6133350133895874
      ],
      "type": "VEC3"
    },
    {
      "bufferView": 2,
      "byteOffset": 7077456,
      "componentType": 5126,
      "count": 65532,
      "max": [
        0.9999884366989136,
        0.9999911785125732,
        0.9999839067459106
      ],
      "min": [
        -0.9999926090240479,
        -0.9999897480010986,
        -0.9999576807022095
      ],
      "type": "VEC3"
    },
    {
      "bufferView": 1,
      "byteOffset": 2097024,
      "componentType": 5126,
      "count": 65532,
      "max": [
        0.9931640625,
        1.0
      ],
      "min": [
        -0.0,
        0.0015811920166015625
      ],
      "type": "VEC2"
    },
    {
      "bufferView": 0,
      "byteOffset": 4870560,
      "componentType": 5125,
      "count": 180654,
      "type": "SCALAR"
    },
    {
      "bufferView": 2,
      "byteOffset": 7863840,
      "componentType": 5126,
      "count": 51106,
      "max": [
        0.6614689826965332,
        0.9936090111732483,
        0.6057310104370117
      ],
      "min": [
        -0.6595039963722229,
        -0.9885069727897644,
        -0.6100419759750366
      ],
      "type": "VEC3"
    },
    {
      "bufferView": 2,
      "byteOffset": 8477112,
      "componentType": 5126,
      "count": 51106,
      "max": [
        0.9999836683273315,
        0.9999911785125732,
        0.999993085861206
      ],
      "min": [
        -0.9999523758888245,
        -0.9999997615814209,
        -0.999951958656311
      ],
      "type": "VEC3"
    },
    {
      "bufferView": 1,
      "byteOffset": 2621280,
      "componentType": 5126,
      "count": 51106,
      "max": [
        0.9931640625,
        1.0
      ],
      "min": [
        -0.0,
        0.0
      ],
      "type": "VEC2"
    },
    {
      "bufferView": 0,
      "byteOffset": 5593176,
      "componentType": 5125,
      "count": 74766,
      "type": "SCALAR"
    }
  ],
  "asset": {
    "extras": {
      "author": "3dUVpro (https://sketchfab.com/3dUVpro)",
      "license": "CC-BY-4.0 (http://creativecommons.org/licenses/by/4.0/)",
      "source": "https://sketchfab.com/3d-models/cyberspace-guardian-robot-mask-armor-02864c51de104494820d6018fe72334f",
      "title": "Cyberspace Guardian robot mask armor"
    },
    "generator": "Sketchfab-16.72.0",
    "version": "2.0"
  },
  "bufferViews": [
    {
      "buffer": 0,
      "byteLength": 5892240,
      "name": "floatBufferViews",
      "target": 34963
    },
    {
      "buffer": 0,
      "byteLength": 3030128,
      "byteOffset": 5892240,
      "byteStride": 8,
      "name": "floatBufferViews",
      "target": 34962
    },
    {
      "buffer": 0,
      "byteLength": 9090384,
      "byteOffset": 8922368,
      "byteStride": 12,
      "name": "floatBufferViews",
      "target": 34962
    }
  ],
  "buffers": [
    {
      "byteLength": 18012752,
      "uri": "scene.bin"
    }
  ],
  "extensionsRequired": [
    "KHR_materials_pbrSpecularGlossiness"
  ],
  "extensionsUsed": [
    "KHR_materials_pbrSpecularGlossiness",
    "KHR_materials_emissive_strength"
  ],
  "images": [
    {
      "uri": "textures/material_0_diffuse.jpeg"
    },
    {
      "uri": "textures/material_0_specularGlossiness.png"
    },
    {
      "uri": "textures/material_0_occlusion.png"
    }
  ],
  "materials": [
    {
      "doubleSided": true,
      "emissiveFactor": [
        1.0,
        1.0,
        1.0
      ],
      "emissiveTexture": {
        "index": 0
      },
      "extensions": {
        "KHR_materials_emissive_strength": {
          "emissiveStrength": 3.199830715406704
        },
        "KHR_materials_pbrSpecularGlossiness": {
          "diffuseFactor": [
            1.0,
            1.0,
            1.0,
            1.0
          ],
          "diffuseTexture": {
            "index": 0
          },
          "glossinessFactor": 1.0,
          "specularFactor": [
            0.644442440205532,
            0.644442440205532,
            0.644442440205532
          ],
          "specularGlossinessTexture": {
            "index": 1
          }
        }
      },
      "name": "material_0",
      "occlusionTexture": {
        "index": 2,
        "strength": 0.2170296792809273
      }
    }
  ],
  "meshes": [
    {
      "name": "Object_0",
      "primitives": [
        {
          "attributes": {
            "NORMAL": 1,
            "POSITION": 0,
            "TEXCOORD_0": 2
          },
          "indices": 3,
          "material": 0,
          "mode": 4
        }
      ]
    },
    {
      "name": "Object_1",
      "primitives": [
        {
          "attributes": {
            "NORMAL": 5,
            "POSITION": 4,
            "TEXCOORD_0": 6
          },
          "indices": 7,
          "material": 0,
          "mode": 4
        }
      ]
    },
    {
      "name": "Object_2",
      "primitives": [
        {
          "attributes": {
            "NORMAL": 9,
            "POSITION": 8,
            "TEXCOORD_0": 10
          },
          "indices": 11,
          "material": 0,
          "mode": 4
        }
      ]
    },
    {
      "name": "Object_3",
      "primitives": [
        {
          "attributes": {
            "NORMAL": 13,
            "POSITION": 12,
            "TEXCOORD_0": 14
          },
          "indices": 15,
          "material": 0,
          "mode": 4
        }
      ]
    },
    {
      "name": "Object_4",
      "primitives": [
        {
          "attributes": {
            "NORMAL": 17,
            "POSITION": 16,
            "TEXCOORD_0": 18
          },
          "indices": 19,
          "material": 0,
          "mode": 4
        }
      ]
    },
    {
      "name": "Object_5",
      "primitives": [
        {
          "attributes": {
            "NORMAL": 21,
            "POSITION": 20,
            "TEXCOORD_0": 22
          },
          "indices": 23,
          "material": 0,
          "mode": 4
        }
      ]
    }
  ],
  "nodes": [
    {
      "children": [
        1
      ],
      "matrix": [
        1.0,
        0.0,
        0.0,
        0.0,
        0.0,
        2.220446049250313e-16,
        -1.0,
        0.0,
        0.0,
        1.0,
        2.220446049250313e-16,
        0.0,
        0.0,
        0.0,
        0.0,
        1.0
      ],
      "name": "Sketchfab_model"
    },
    {
      "children": [
        2
      ],
      "name": "root"
    },
    {
      "children": [
        3
      ],
      "matrix": [
        1.0,
        0.0,
        0.0,
        0.0,
        0.0,
        2.220446049250313e-16,
        1.0,
        0.0,
        0.0,
        -1.0,
        2.220446049250313e-16,
        0.0,
        0.0,
        0.0,
        0.0,
        1.0
      ],
      "name": "GLTF_SceneRootNode"
    },
    {
      "children": [
        4,
        5,
        6,
        7,
        8,
        9
      ],
      "name": "_0"
    },
    {
      "mesh": 0,
      "name": "Object_4"
    },
    {
      "mesh": 1,
      "name": "Object_5"
    },
    {
      "mesh": 2,
      "name": "Object_6"
    },
    {
      "mesh": 3,
      "name": "Object_7"
    },
    {
      "mesh": 4,
      "name": "Object_8"
    },
    {
      "mesh": 5,
      "name": "Object_9"
    }
  ],
  "samplers": [
    {
      "magFilter": 9729,
      "minFilter": 9987,
      "wrapS": 10497,
      "wrapT": 10497
    }
  ],
  "scene": 0,
  "scenes": [
    {
      "name": "Sketchfab_Scene",
      "nodes": [
        0
      ]
    }
  ],
  "textures": [
    {
      "sampler": 0,
      "source": 0
    },
    {
      "sampler": 0,
      "source": 1
    },
    {
      "sampler": 0,
      "source": 2
    }
  ]
}
